<?xml version="1.0" encoding="utf-8"?>
<!-- Generator: Adobe Illustrator 23.1.0, SVG Export Plug-In . SVG Version: 6.00 Build 0)  -->
<svg version="1.1" id="Слой_1" xmlns="http://www.w3.org/2000/svg" xmlns:xlink="http://www.w3.org/1999/xlink" x="0px" y="0px"
	 viewBox="0 0 833.73 1000" style="enable-background:new 0 0 833.73 1000;" xml:space="preserve">
<style type="text/css">
	.st0{fill:#111111;}
</style>
<g>
	<path class="st0" d="M252.32,636.66c-0.54-0.94-1.25-1.77-2.17-2.43c-1.94-1.38-4.45-1.66-6.84-1.72
		c-14.59-0.37-29.21,5.98-38.9,16.89s-14.27,26.18-12.19,40.62c-14.05-23.78-25.26-49.24-33.3-75.67
		c14.2,6.89,32.34,4.69,44.48-5.38c14.13-11.73,18.82-31.07,22.7-49.02c0.47-2.16,0.93-4.42,0.33-6.55
		c-1.19-4.23-5.98-6.24-10.28-7.14c-28.39-5.94-59.58,14.85-65.03,43.33c-7.02-27.8-10.69-56.44-10.91-85.11
		c11.96,11.2,30.64,14.56,45.76,8.24c15.81-6.61,26.05-21.78,35.36-36.16c1.75-2.7,3.58-5.79,2.9-8.94
		c-0.62-2.87-3.17-4.88-5.66-6.44c-13.07-8.15-29.67-10.4-44.44-6.02s-27.47,15.3-33.99,29.26c0.94-26.56,4.97-53,11.98-78.64
		c7.7,6.67,16.56,12.64,26.65,14.05c21.8,3.07,40.14-15.2,54.52-31.87c2.57-2.97,5.31-6.63,4.34-10.44
		c-0.61-2.39-2.57-4.18-4.53-5.67c-21.49-16.35-55.36-13.12-73.38,6.99c4.48-11.54,8.96-23.08,13.44-34.62
		c1.08-2.78,2.2-5.62,4.16-7.86c5.41-6.16,14.91-5.71,22.76-8.07c12.5-3.76,21.36-15.42,25.27-27.87s3.68-25.78,3.42-38.83
		c-0.05-2.28-0.14-4.73-1.49-6.57c-2.13-2.92-6.37-3.11-9.96-2.69c-27.53,3.3-50.28,29.68-49.5,57.39
		c0.17,5.88,1.25,11.75,0.73,17.6c-1.32,14.79-12.54,26.98-15.42,41.55c1.43-7.24-8.61-19.25-13.17-23.86
		c-6.76-6.84-15.38-11.9-24.65-14.45c-6.09-1.67-20.81-4.75-25.52,1.18c-5.43,6.84-0.56,28.31,1.45,35.99
		c3.1,11.87,10.07,23.29,20.97,28.94c9.32,4.83,20.42,4.95,30.8,3.34c-3.86,22.16-7.73,44.31-11.59,66.47
		c-11.41-23.07-40.55-35.65-65.16-28.15c-2.82,0.86-5.8,2.14-7.18,4.75c-1.54,2.92-0.57,6.47,0.43,9.62
		c5.15,16.2,11,33.42,24.43,43.83c12.8,9.92,31.5,11.51,45.79,3.89c2.27,22.77,4.54,45.53,6.82,68.3
		c-16.34-18.51-45.43-24.32-67.63-13.5c-3.63,1.77-7.49,4.62-7.54,8.65c-0.03,2.21,1.12,4.23,2.24,6.14
		c9.52,16.17,20.24,33.42,37.67,40.39c14.2,5.68,31.41,2.97,43.18-6.8c6.08,20.01,13.56,39.59,22.38,58.55
		c-20.83-16.96-54.46-15.21-73.42,3.82c-2.09,2.1-4.12,4.66-4.05,7.61c0.07,3.13,2.45,5.68,4.71,7.85
		c12.25,11.76,26.19,22.88,42.83,26.33c16.63,3.44,36.39-3.08,43.29-18.6c11.34,19.19,23.85,37.68,37.45,55.35
		c2.19,2.84,6.17,5.9,8.86,3.53c2.41-2.12,0.69-6.04-1.14-8.68c-6.69-9.65-13.39-19.31-20.08-28.96
		c14.77,3.31,31.23-2.98,40.02-15.31c9.93-13.93,9.6-32.44,8.87-49.53C254.06,642.5,253.77,639.17,252.32,636.66z M144.29,441.8
		c-0.01,0.05-0.02,0.1-0.02,0.15c0.01-0.07,0.02-0.13,0.03-0.2C144.29,441.77,144.29,441.79,144.29,441.8z"/>
	<g>
		<path class="st0" d="M310.62,945.6c0.04,0.01,0.07,0.03,0.1,0.04C310.69,945.63,310.66,945.62,310.62,945.6L310.62,945.6
			L310.62,945.6z"/>
		<path class="st0" d="M432.56,979.01c-0.08-0.01-0.16-0.03-0.23-0.04c0.18,0.03,0.36,0.05,0.53,0.08
			C432.77,979.03,432.66,979.02,432.56,979.01L432.56,979.01L432.56,979.01z"/>
		<path class="st0" d="M432.2,978.95c0.04,0,0.09,0.01,0.13,0.02C432.28,978.96,432.24,978.96,432.2,978.95L432.2,978.95
			L432.2,978.95z"/>
		<path class="st0" d="M310.99,945.76c-0.09-0.04-0.17-0.07-0.26-0.11c0.11,0.04,0.22,0.09,0.34,0.14
			C311.04,945.78,311.01,945.77,310.99,945.76L310.99,945.76L310.99,945.76z"/>
		<path class="st0" d="M612.68,954.3c-6.77,0-12.43-5.66-12.43-12.43c0-6.77,5.66-12.43,12.43-12.43s12.43,5.66,12.43,12.43
			C625.11,948.64,619.45,954.3,612.68,954.3L612.68,954.3L612.68,954.3z"/>
		<path class="st0" d="M488.36,924.55c-6.77,0-12.43-5.66-12.43-12.43c0-6.77,5.66-12.43,12.43-12.43c6.77,0,12.43,5.66,12.43,12.43
			C500.79,918.89,495.13,924.55,488.36,924.55L488.36,924.55L488.36,924.55z"/>
		<path class="st0" d="M539.98,954.21c-6.77,0-12.43-5.66-12.43-12.43c0-6.77,5.66-12.43,12.43-12.43c6.77,0,12.43,5.66,12.43,12.43
			C552.41,948.55,546.75,954.21,539.98,954.21L539.98,954.21L539.98,954.21z"/>
		<path class="st0" d="M447.16,961.76c-6.77,0-12.43-5.66-12.43-12.43s5.66-12.43,12.43-12.43c6.77,0,12.43,5.66,12.43,12.43
			S453.93,961.76,447.16,961.76L447.16,961.76L447.16,961.76z"/>
		<path class="st0" d="M346.75,843c-7.68,0-14.09-6.41-14.09-14.09s6.41-14.09,14.09-14.09s14.09,6.41,14.09,14.09
			S354.43,843,346.75,843L346.75,843L346.75,843z"/>
		<path class="st0" d="M326.66,925.07c-7.68,0-14.09-6.41-14.09-14.09s6.41-14.09,14.09-14.09s14.09,6.41,14.09,14.09
			S334.33,925.07,326.66,925.07L326.66,925.07L326.66,925.07z"/>
		<path class="st0" d="M256.76,844.03c-9.04,0-16.57-7.54-16.57-16.57s7.54-16.57,16.57-16.57c9.04,0,16.57,7.54,16.57,16.57
			S265.8,844.03,256.76,844.03L256.76,844.03L256.76,844.03z"/>
		<path class="st0" d="M408.74,911.82c1.19-6.33,6.4-12.71,11.58-14.17l11.16-3.15c5.17-1.46,5.17-3.85,0-5.32l-11.16-3.15
			c-5.17-1.46-10.38-7.84-11.58-14.17l-2.58-13.67c-1.19-6.33-3.15-6.33-4.34,0l-2.58,13.67c-1.19,6.33-6.4,12.71-11.58,14.17
			l-11.17,3.15c-5.17,1.46-5.17,3.85,0,5.32l11.17,3.15c5.17,1.46,10.38,7.84,11.58,14.17l2.58,13.67c1.19,6.33,3.15,6.33,4.34,0
			L408.74,911.82z"/>
	</g>
	<path class="st0" d="M500,1000C224.3,1000,0,775.7,0,500S224.3,0,500,0c114.33,0,221.95,37.58,311.23,108.69l22.49,17.91
		l-27.26-9.15c-41.32-13.88-84.56-20.91-128.53-20.91c-222.47,0-403.47,180.99-403.47,403.47c0,222.47,180.99,403.47,403.47,403.47
		c43.97,0,87.21-7.04,128.53-20.91l27.26-9.15l-22.49,17.91C721.95,962.42,614.33,1000,500,1000z M500,10.12
		C229.88,10.12,10.12,229.88,10.12,500S229.88,989.88,500,989.88c102.61,0,199.69-30.89,282.51-89.63
		c-34,8.86-69.06,13.34-104.57,13.34c-228.05,0-413.59-185.54-413.59-413.59S449.88,86.41,677.94,86.41
		c35.52,0,70.57,4.48,104.57,13.34C699.69,41.02,602.61,10.12,500,10.12z"/>
	<g>
		<path class="st0" d="M310.62,53.87c0.04-0.01,0.07-0.03,0.1-0.04C310.69,53.84,310.66,53.86,310.62,53.87L310.62,53.87
			L310.62,53.87z"/>
		<path class="st0" d="M432.56,20.47c-0.08,0.01-0.16,0.03-0.23,0.04c0.18-0.03,0.36-0.05,0.53-0.08
			C432.77,20.44,432.66,20.46,432.56,20.47L432.56,20.47L432.56,20.47z"/>
		<path class="st0" d="M432.2,20.53c0.04,0,0.09-0.01,0.13-0.02C432.28,20.51,432.24,20.52,432.2,20.53L432.2,20.53L432.2,20.53z"/>
		<path class="st0" d="M310.99,53.72c-0.09,0.04-0.17,0.07-0.26,0.11c0.11-0.04,0.22-0.09,0.34-0.14
			C311.04,53.7,311.01,53.71,310.99,53.72L310.99,53.72L310.99,53.72z"/>
		<path class="st0" d="M612.68,45.18c-6.77,0-12.43,5.66-12.43,12.43s5.66,12.43,12.43,12.43s12.43-5.66,12.43-12.43
			S619.45,45.18,612.68,45.18L612.68,45.18L612.68,45.18z"/>
		<path class="st0" d="M488.36,74.93c-6.77,0-12.43,5.66-12.43,12.43c0,6.77,5.66,12.43,12.43,12.43c6.77,0,12.43-5.66,12.43-12.43
			C500.79,80.59,495.13,74.93,488.36,74.93L488.36,74.93L488.36,74.93z"/>
		<path class="st0" d="M539.98,45.26c-6.77,0-12.43,5.66-12.43,12.43s5.66,12.43,12.43,12.43c6.77,0,12.43-5.66,12.43-12.43
			S546.75,45.26,539.98,45.26L539.98,45.26L539.98,45.26z"/>
		<path class="st0" d="M447.16,37.71c-6.77,0-12.43,5.66-12.43,12.43s5.66,12.43,12.43,12.43c6.77,0,12.43-5.66,12.43-12.43
			S453.93,37.71,447.16,37.71L447.16,37.71L447.16,37.71z"/>
		<path class="st0" d="M346.75,156.47c-7.68,0-14.09,6.41-14.09,14.09c0,7.68,6.41,14.09,14.09,14.09s14.09-6.41,14.09-14.09
			C360.84,162.88,354.43,156.47,346.75,156.47L346.75,156.47L346.75,156.47z"/>
		<path class="st0" d="M326.66,74.41c-7.68,0-14.09,6.41-14.09,14.09s6.41,14.09,14.09,14.09s14.09-6.41,14.09-14.09
			S334.33,74.41,326.66,74.41L326.66,74.41L326.66,74.41z"/>
		<path class="st0" d="M256.76,155.44c-9.04,0-16.57,7.54-16.57,16.57c0,9.04,7.54,16.57,16.57,16.57c9.04,0,16.57-7.54,16.57-16.57
			C273.33,162.98,265.8,155.44,256.76,155.44L256.76,155.44L256.76,155.44z"/>
		<path class="st0" d="M408.74,87.66c1.19,6.33,6.4,12.71,11.58,14.17l11.16,3.15c5.17,1.46,5.17,3.85,0,5.32l-11.16,3.15
			c-5.17,1.46-10.38,7.84-11.58,14.17l-2.58,13.67c-1.19,6.33-3.15,6.33-4.34,0l-2.58-13.67c-1.19-6.33-6.4-12.71-11.58-14.17
			l-11.17-3.15c-5.17-1.46-5.17-3.85,0-5.32l11.17-3.15c5.17-1.46,10.38-7.84,11.58-14.17l2.58-13.67c1.19-6.33,3.15-6.33,4.34,0
			L408.74,87.66z"/>
	</g>
	<g>
		<path class="st0" d="M437.11,419.96c-44.14,0-80.04,35.91-80.04,80.04c0,44.14,35.91,80.04,80.04,80.04s80.04-35.91,80.04-80.04
			C517.16,455.86,481.25,419.96,437.11,419.96z"/>
		<path class="st0" d="M545.58,280.63c-18.65-32.04-59.9-42.93-91.94-24.27c-32.04,18.65-42.93,59.9-24.27,91.94
			c8.34,14.33,21.21,24.43,35.75,29.55c17.96,6.32,38.48,5.04,56.19-5.27C553.34,353.91,564.23,312.67,545.58,280.63z
			 M540.11,283.81c9.95,17.09,10.61,37.07,3.56,54.06c-17.68-3.3-33.88-13.96-43.64-30.73c-9.76-16.76-11.04-36.11-5.18-53.12
			C513.11,256.28,530.16,266.72,540.11,283.81z"/>
		<path class="st0" d="M614.66,213.89c-7.35-21-1.03-43.47,14.27-57.72c-7.27-0.56-14.78,0.33-22.1,2.89
			c-28.33,9.91-43.26,40.91-33.35,69.24c9.91,28.33,40.91,43.26,69.24,33.35c7.33-2.56,13.75-6.55,19.09-11.52
			C640.94,248.52,622,234.89,614.66,213.89z"/>
		<path class="st0" d="M710.42,189.59c0.04-18.19,13.07-33.32,30.29-36.63c-2.33-0.46-4.73-0.71-7.19-0.71
			c-20.66-0.05-37.44,16.66-37.48,37.32c-0.05,20.66,16.66,37.44,37.32,37.48c2.46,0.01,4.86-0.23,7.19-0.68
			C723.34,222.97,710.38,207.79,710.42,189.59z"/>
		<path class="st0" d="M521.3,627.43c-17.71-10.31-38.23-11.6-56.19-5.27c-14.54,5.12-27.4,15.21-35.75,29.55
			c-18.66,32.04-7.77,73.28,24.27,91.94c32.04,18.66,73.28,7.77,91.94-24.27C564.23,687.33,553.34,646.09,521.3,627.43z
			 M494.85,745.97c-5.86-17-4.58-36.36,5.18-53.12c9.76-16.76,25.96-27.42,43.64-30.73c7.06,16.99,6.4,36.97-3.56,54.06
			C530.16,733.28,513.11,743.72,494.85,745.97z"/>
		<path class="st0" d="M614.66,786.11c-7.35,21-1.03,43.47,14.27,57.72c-7.27,0.56-14.78-0.33-22.1-2.89
			c-28.33-9.91-43.26-40.91-33.35-69.24c9.91-28.33,40.91-43.26,69.24-33.35c7.33,2.56,13.75,6.55,19.09,11.52
			C640.94,751.48,622,765.11,614.66,786.11z"/>
		<path class="st0" d="M710.42,810.41c0.04,18.19,13.07,33.32,30.29,36.64c-2.33,0.46-4.73,0.71-7.19,0.71
			c-20.66,0.05-37.44-16.66-37.48-37.32c-0.05-20.66,16.66-37.44,37.32-37.48c2.46-0.01,4.86,0.23,7.19,0.68
			C723.34,777.03,710.38,792.21,710.42,810.41z"/>
	</g>
</g>
</svg>
