<?xml version="1.0" encoding="utf-8"?>

<!DOCTYPE svg PUBLIC "-//W3C//DTD SVG 1.1//EN" "http://www.w3.org/Graphics/SVG/1.1/DTD/svg11.dtd">
<svg version="1.1" id="Layer_1" xmlns="http://www.w3.org/2000/svg" xmlns:xlink="http://www.w3.org/1999/xlink" x="0px" y="0px"
	 viewBox="0 0 1325.8328 1727.8582" enable-background="new 0 0 1325.8328 1727.8582" xml:space="preserve">
<g>
	<path d="M865.3657,1267.6563c-298.2666,0-540.0595-241.793-540.0595-540.0596s241.7929-540.0595,540.0595-540.0595
		c164.7996,0,312.353,73.8205,411.4125,190.1921C1159.6829,189.3479,950.8513,63.9291,712.7221,63.9291
		c-366.5335,0-663.6676,297.1341-663.6676,663.6676s297.1341,663.6676,663.6676,663.6676
		c238.1292,0,446.9606-125.4187,564.0561-313.8003C1177.7186,1193.8357,1030.1653,1267.6563,865.3657,1267.6563z"/>
	<path d="M652.9464,1292.5437c27.9771,14.4521,75.2598,34.3027,109.2825,28.4597c-10.5632,18.9531-20.7231,38.2653-33.7617,55.6815
		c-4.8312,6.6136-9.9773,13.0636-16.1375,18.4995c-5.48,4.8816-11.4764,9.1459-17.4729,13.3597
		c-6.9476,4.7241-13.6118,10.8718-16.1186,19.1483c-1.3039,4.6171-1.4299,10.1663,1.7007,14.103
		c3.4391,4.3904,6.6703,8.9695,9.3978,13.8448c1.4424,2.6581,2.929,5.4862,2.8785,8.6105
		c-0.0253,8.1884-2.3431,16.1879-5.4359,23.715c-1.455,3.5021-2.8031,7.1302-3.1055,10.9536
		c-0.5668,5.839,2.041,11.9677,6.7964,15.4572c4.617,3.4896,9.7253,6.2422,14.607,9.3348c1.4424,0.8694,2.929,1.9023,4.6801,1.9337
		c4.0438,0.1072,7.905-1.5305,11.9425-1.499c2.6392-0.3024,3.2438,3.3005,5.7194,3.4454c2.8722,0.2582,5.5744-0.9637,8.3835-1.2787
		c1.3607-1.1527,1.6315-2.803,1.3293-4.4784c0.5353-3.099-1.2662-5.8832-3.1116-8.1821
		c-4.0062-4.2579-8.6294-8.2452-10.7648-13.8511c-1.7007-3.1998-1.2976-6.8783-1.1716-10.349
		c0.233-2.6202-1.2346-4.9508-1.5495-7.4893c-0.674-4.6863,0.7369-9.3726,2.7841-13.5424
		c3.8989-7.8799,4.9319-16.8556,4.7618-25.5416c0.0315-2.3243-0.6111-4.8439,0.611-6.9728c1.5369-2.8597,3.2816-5.6123,4.5162-8.623
		c1.8896-4.6801,5.2468-8.5223,8.3522-12.4214c5.9713-7.2499,12.2952-14.2037,18.4303-21.3087
		c14.9407-16.0116,30.1523-31.7649,45.2693-47.6001c7.0045,19.4255,16.4904,37.8243,25.9071,56.1664
		c13.0259,25.233,26.7573,50.1952,37.2762,76.6187c2.1605,5.1399,5.0391,9.9899,6.5886,15.3817
		c2.0912,6.9098,1.7574,14.4935-0.7118,21.2584c-2.1856,5.121-5.6248,9.5679-8.3144,14.4243
		c-3.7037,6.4373-6.9413,13.7124-6.0909,21.3214c0.5039,5.2028,3.9368,9.467,7.4955,13.0385
		c6.9602,6.7776,15.2872,11.9301,23.6898,16.7107c2.9793,1.726,5.4988,4.1006,8.1129,6.3241
		c5.7256,4.9572,11.0355,10.4055,15.7659,16.3328c2.0219,2.4817,3.9809,5.0579,5.3225,7.9995
		c2.973,6.1224,5.9587,12.2638,9.5049,18.0901c2.0408,3.3069,4.2643,6.6642,7.5333,8.9003
		c5.5619,3.8612,11.634,6.9097,17.6178,10.0465c3.9304,1.959,6.5129,5.7004,10.1411,8.1002
		c2.7589,1.833,5.7697,3.6471,9.1207,4.0313c1.8203,0.1134,2.8723-1.5873,3.9493-2.7462c2.3873,0.7118,4.8375,0.3086,7.0295-0.7874
		c2.3431,2.1165,3.4832,5.4799,6.557,6.7649h3.5526c0.8441-0.7306,1.5117-1.625,2.1353-2.5068
		c1.6376,0.5731,3.6029,1.1779,5.0957-0.0757c1.6881-1.0204,1.7196-3.0927,1.5496-4.8123c2.4943,0.4598,5.0894-0.0883,7.0673-1.7069
		c2.2549-1.8077,4.9823-4.1006,4.7303-7.2941c-0.0378-2.022-1.0834-4.2958-3.2502-4.6926
		c-6.7775-1.5936-12.9503-4.9572-18.8649-8.5349c-3.3887-2.0029-6.3051-4.743-9.9017-6.3933
		c-2.8848-1.3857-6.0594-2.5132-8.2137-5.0011c-2.8093-3.2251-4.3209-7.313-5.82-11.2561
		c-4.7304-12.8999-4.1069-26.9399-7.9365-40.054c-3.1306-10.9852-7.2436-21.649-10.7899-32.4893
		c-7.7034-21.8127-19.0224-42.0759-28.1871-63.2588c-4.6737-10.7395-8.1885-21.9261-11.489-33.1443
		c-10.4434-36.1111-18.2791-72.8899-26.562-109.5363c-3.5022-15.728-7.6845-31.4183-8.9254-47.537
		c0,0,0.3365-121.0343-1.0079-120.9686c-2.3432-1.4865-3.9116-3.9996-5.4484-6.2672c-0.6677-1.8959-1.1464-3.8801-2.5322-5.4108
		c0.0062-0.7557,0.0062-1.4928,0.0062-2.2296c-0.9259-0.3276-1.8518-0.6615-2.7903-0.9701c0.611-0.6237,1.222-1.2346,1.8267-1.8392
		c-1.3228-0.1575-2.6518-0.2834-3.9808-0.4283c0.6172-1.1023,1.2346-2.2109,1.8456-3.3005
		c-3.307,1.3479-6.6075,3.351-10.3176,3.0549c0.3528-1.0457,0.7182-2.1228,1.0708-3.1432c-0.4219,0.2457-1.2661,0.7369-1.688,0.9827
		c-0.0378-0.4283-0.1008-1.2849-0.1323-1.7196c-0.6426,0.9512-0.9385,2.4187-2.3433,2.5321
		c0.0253-2.0282,0.1702-4.0502,0.2836-6.0594c-0.1702,0.5165-0.5102,1.5496-0.6803,2.0724
		c-0.8818,0.1888-1.7574,0.3967-2.6393,0.6361c0.1261-0.4724,0.3716-1.4047,0.4976-1.8771
		c-0.9321,0.0253-1.8643,0.0568-2.8029,0.1008c-0.0379-0.4661-0.1134-1.3983-0.1512-1.8582
		c-0.6929,0.3149-1.3984,0.6425-2.0976,0.9763c0.0189-1.0393,0.0442-2.0723,0.0693-3.0927
		c-0.3337,0.1952-0.9952,0.5857-1.3228,0.781c0.0946-0.4724,0.2899-1.4045,0.3906-1.877c-0.8188,0.3022-1.6441,0.6172-2.4628,0.9447
		c0.5038-0.7306,1.0014-1.455,1.4865-2.1794c-1.6882,0.2268-3.3824,0.4724-5.077,0.7371c1.2032-0.5732,2.4-1.1401,3.5968-1.6945
		c-0.8251,0.17-2.4819,0.5166-3.307,0.6866l0.8-1.6315c-0.6741,0.3717-1.348,0.7496-2.022,1.1338
		c0.0064-0.3652,0.0252-1.1023,0.0379-1.4675c-1.4802,0.5291-2.9604,1.0518-4.447,1.5873c0.2267-0.4788,0.6803-1.4362,0.9069-1.9148
		c-1.1336-0.1008-2.2675-0.1891-3.4012-0.2646c-0.8126,0.9071-1.6315,1.8077-2.4503,2.7274
		c-0.3148-0.5039-0.636-0.9952-0.9573-1.4739c-0.4158,0.4786-0.8441,0.951-1.285,1.4235c-0.5291-0.7999-1.0645-1.5809-1.6062-2.3495
		c-0.5165,0.7433-1.0392,1.5117-1.5558,2.2739l-0.0818-1.6881c-1.5999,1.5685-3.1746,3.1746-4.7115,4.8123
		c0.17-1.7888,0.3087-3.5651,0.3716-5.3477c-3.2565,1.1276-6.0469,3.3762-9.4608,4.0627c0.8062-1.77,1.6945-3.5021,2.5826-5.2217
		c-1.6126,1.0897-3.2252,2.1793-4.8754,3.2186c0.3275-1.1653,0.6677-2.3368,1.0015-3.4832
		c-0.8691,0.9323-1.7574,1.8707-2.6392,2.8156c-0.0063-0.4347-0.0251-1.3038-0.0314-1.7385
		c-1.3984,0.4598-2.8093,0.9071-4.2202,1.3417c0.0126-0.9827,0.0315-1.9589,0.0504-2.929
		c-0.8755,1.2787-1.7762,2.5448-2.6896,3.8108c-0.3779-0.3528-1.1275-1.0582-1.5054-1.4047
		c-0.7559,0.3905-1.5117,0.7874-2.2739,1.1904c-0.3213-2.9037-0.6235-5.8074-0.9763-8.7048
		c-0.718,3.3069-1.4551,6.6138-2.1226,9.9396c-0.1198-0.5419-0.3527-1.6189-0.4662-2.1606
		c-0.8567,0.9008-1.7132,1.8015-2.5762,2.7148c-0.7181-0.718-1.4487-1.4235-2.1794-2.129
		c-0.1197,0.9008-0.2458,1.8077-0.3654,2.7274c-0.0945-0.3969-0.2772-1.1842-0.3654-1.5747
		c-0.6677,0.9133-1.3353,1.8394-2.0093,2.7715c-0.3087-0.5103-0.9323-1.5306-1.2408-2.0408
		c-0.762,2.7084-1.4865,5.4296-2.1603,8.1632c-0.737-0.8126-1.4678-1.6251-2.2046-2.425c-1.1842,0.3149-2.3559,0.6235-3.5464,0.9574
		c0.611-3.4895,1.2977-6.9664,1.7133-10.4874c-1.7195,3.1052-2.7713,6.5885-4.9633,9.423c0.126-2.129,0.5354-4.2202,0.9573-6.2988
		c-1.1905,2.4502-2.3242,4.9194-3.3825,7.4326c-0.4974-1.0016-1.014-1.9905-1.5179-2.9731c-0.7495,0.8-1.5181,1.5874-2.2487,2.4188
		c0.3654-1.6755,0.674-3.3636,0.9259-5.0516c-0.3777,0.1511-1.1338,0.4471-1.518,0.5983c-0.9763-2.1541-1.9085-4.3335-2.8408-6.5066
		c-0.2519,0.0883-0.7495,0.2583-0.9953,0.3402c-0.1006-1.329-0.2139-2.6329-0.3274-3.9431
		c-1.348,0.7937-2.7147,1.5874-3.9368,2.5889c0.2332-1.0457,0.4409-2.085,0.6362-3.118c-0.4472,0.6804-0.8881,1.3542-1.3416,2.0598
		c-0.2897-0.6992-0.592-1.3857-0.8943-2.066c-0.1385,0.4913-0.4095,1.4677-0.5481,1.959c-0.7621-0.5039-1.3481-1.6188-2.3369-1.5936
		c-1.2976,0.9385-2.2613,2.2423-3.3005,3.4518c-1.8079-3.4015-3.7101-6.7587-5.2974-10.2671
		c-1.3606-2.8282-0.2709-6.0027,0.044-8.938c0.8316-6.1161,2.7968-12.1189,2.4251-18.3484
		c-0.1511-2.2676,0.5039-4.4532,1.3605-6.5129c4.7493-12.0623,10.0277-23.9166,15.2179-35.7961
		c0.8567-2.1605,2.8912-3.4392,4.6865-4.743c8.497-5.8264,17.4792-11.3441,24.1558-19.3373
		c3.3763-4.025,5.9524-8.8876,6.4878-14.1723c1.3542-11.3631-2.7211-22.7261-8.9443-32.0924
		c-1.329,4.2265-3.5714,8.075-5.1839,12.1881c-0.718-3.1746-2.5825-6.0027-3.1746-9.1773
		c3.162-8.7239,7.8231-16.8177,11.3882-25.3779c3.0485-6.8216,4.8249-14.7392,2.3809-22.0269
		c-2.3116-7.3822-8.4089-12.8432-15.0415-16.421c-2.532-1.5306-5.5178-2.2234-7.861-4.0627
		c-2.847-2.4818-5.2216-5.4422-7.5206-8.4215c3.2249-8.1003,6.1539-16.3203,9.4293-24.3953
		c1.8644-2.3179,4.4281-3.9681,6.5884-5.9902c2.5511-2.0912,4.9636-4.3526,7.6342-6.2862c1.5873-1.1023,3.5778-0.1575,5.2911,0.1323
		c4.9572,1.2851,10.1033,1.329,15.174,1.7196c3.5776,0.1954,7.1993-0.0126,10.7078-0.7244
		c4.2391-0.9385,7.4388-4.8501,7.8357-9.1207c0.0188-2.5383-0.6993-5.0139-1.852-7.2562c-0.9321-1.9149-1.1589-4.655,0.6803-6.1097
		c1.2977-1.1591,3.3196-0.6299,4.6486-1.6315c0.3337-2.0472-1.0897-3.6722-2.6393-4.7556c1.2094-1.3668,2.9352-2.7652,2.9226-4.7368
		c-0.8755-1.4045-2.0345-2.6013-3.1179-3.8484c0.1385-0.7621,0.3149-1.5117,0.5165-2.2487c1.8959-1.7133,4.7429-2.2802,6.1539-4.554
		c1.0203-1.7511-0.0063-3.8612-1.2473-5.1964c-3.5399-3.6218-6.8971-7.4264-10.0528-11.3821
		c-2.1793-2.5888-1.9211-6.1666-2.1605-9.3286c-0.1323-6.0216-0.0756-12.1315-1.707-17.9832
		c1.1714,0.6425,2.3369,1.4551,3.7098,1.537c6.6328,0.4976,13.4607-3.7289,15.7094-10.0341
		c0.7054-2.1352,0.8882-5.6688-1.8267-6.4058c-3.1242-0.2897-5.9838,1.4928-8.8246,2.5637
		c-1.6126-0.4221-3.1683-1.0898-4.3274-2.337c1.2598-2.4187,3.8549-3.3256,5.9902-4.7241c2.1101-2.4313,2.9667-5.6626,4.239-8.5601
		c7.3382-2.7274,14.1031-7.8293,17.4478-15.0604c1.9336-4.1005,2.8408-8.8057,1.9085-13.2905
		c-0.9952-5.228-4.428-9.8009-8.8751-12.6291c-5.883-3.8045-13.3408-4.6485-20.1057-3.2311
		c-2.2046,0.34-3.9934,1.8832-4.5981,4.0374c-1.096-0.4345-2.2046-0.8566-3.3132-1.2661c1.0708-2.173,1.8204-4.8878,0.3717-7.0861
		c-1.4929-2.5258-4.6863-2.8535-7.3318-2.8912c-1.241-2.6581-2.5511-5.398-2.7526-8.371c-0.1387-1.7574,0.9321-3.3006,1.0834-5.0202
		c-0.2772-0.8377-0.6866-1.6124-1.0583-2.4061c1.7636-0.1069,3.5273,0.0189,5.2721,0.2394
		c-2.0977-0.6426-4.2012-1.9086-6.4689-1.4739c-0.7874,1.9526,0.0631,4.132-0.5731,6.1476
		c-0.7748,2.9604-0.4662,6.0406,0.4219,8.9444c-2.6769-2.0094-4.9005-4.5226-7.4515-6.6705
		c-2.6204-1.7133-5.8075-2.8091-8.9443-2.0092c-1.1464-1.8015-2.6644-3.3259-4.5224-4.384
		c0.3465-3.0801,1.4675-6.6768,4.6044-7.9428c2.6895-1.1149,5.694,0.5796,7.0168,2.9667c1.8707,2.9982,1.6693,6.658,1.5558,10.053
		c0.5921-3.5778,1.1402-7.5146-0.674-10.8466c-2.2171-4.1383-8.1002-5.2909-12.0243-3.017
		c-2.6519,1.7385-3.307,5.1021-3.8172,8.0058c-2.5006,0.4472-4.302,2.2234-5.7004,4.2265
		c-0.0251-4.2895-0.2707-8.9254-2.8972-12.5222c-2.0095-2.9793-5.5179-4.4155-8.9633-4.9194
		c-3.5526-3.7477-8.9317-3.9052-13.7377-4.1319c-0.2394-0.6046-0.4849-1.2094-0.7369-1.8079
		c3.7918,0.5606,8.2073-0.189,10.6575-3.4075c3.4769-5.1461,2.6834-13.3849-2.847-16.8052
		c-4.4092-2.6329-9.9332-2.0597-14.6826-0.7244c-4.5162,1.2974-7.3633,5.5681-8.4214,9.9457
		c-3.288-4.5413-9.3978-5.9019-14.6951-5.1271c-2.0723,0.2897-4.1572,1.8958-4.0122,4.176
		c0.1385,3.5527,2.6076,6.3934,4.9633,8.8184c-0.4094,0.4221-0.8188,0.8442-1.2345,1.2786
		c-3.1368-6.2735-7.9932-12.0559-14.6259-14.7454c-4.554-1.9274-10.1033-1.5621-14.1408,1.3983
		c-5.2154,3.7478-7.987,9.908-9.738,15.8982c-1.3353,5.2343-2.8785,10.5946-2.3495,16.0493
		c0.1513,1.8959,0.989,3.6282,1.9149,5.2532c-2.1352,1.6313-4.365,3.1305-6.7208,4.428c-1.0331-0.5607-2.066-1.1339-3.1115-1.6881
		c-0.2457-3.792-0.7433-7.8293-3.0551-10.985c-1.4171-2.0156-4.0374-3.0488-6.45-2.4503c-5.3729,1.1338-11.3,2.1479-15.2997,6.2673
		c-3.2565,3.4895-2.9352,8.7616-1.6566,13.0322c-2.4756,4.4344-6.8153,7.6278-8.4783,12.5346
		c-0.9574,2.4252-1.0392,5.0579-0.9951,7.6404c-3.7605,1.8771-6.5823,5.4044-7.8358,9.3978
		c-0.8754,2.7652,0.2205,5.8201,2.3621,7.6909c3.7415,3.3889,8.6483,5.0012,13.2211,6.9223
		c-1.3983,4.2833,1.2535,8.535,4.5668,11.0609c3.0296,2.1479,6.9224,1.8204,10.4244,1.5368
		c-2.7839,1.3795-5.4861,2.9417-8.0247,4.743c-3.2502-0.5038-6.8278-0.5605-9.7126,1.2661
		c-4.0627,2.507-5.902,7.3759-6.5571,11.9048c-0.3589,2.4944,0.3403,5.6123,2.8912,6.6894
		c1.9843,1.0078,4.1068,0.0441,6.1224-0.2394c2.2929,0.756,2.1983,3.4581,2.8533,5.3478c2.5826,2.7778,6.1603,4.3334,9.02,6.7711
		c1.3292-0.6047,2.3369-1.4297,1.4677-2.9667c2.4816,0.3087,4.9634,0.0882,7.4387-0.1385c0.9134,1.5935,1.8771,3.3951,3.7354,4.0313
		c2.1604,0.7305,4.4845,0.7052,6.7333,0.825c-1.518,3.71-2.6392,7.8294-1.707,11.8354c0.655,2.8912,2.8973,4.9886,4.7681,7.1428
		c2.8031,3.0046,5.5745,6.217,9.3156,8.0815c-1.2786,1.6313-1.858,3.5965-1.9462,5.6563c2.847,1.9589,5.9082,4.0943,9.4419,4.384
		c1.9462-0.6552,3.3823-2.1982,4.8941-3.4959c0.4536,0.5292,0.9008,1.0583,1.3417,1.5937c0.0126,2.3116-0.3275,4.7366,0.4913,6.9602
		c1.581,3.0673,4.617,4.9885,6.6893,7.6718c1.1589,4.151,1.5054,9.1017,5.0642,12.0434c2.5888,1.6061,5.8641,0.7368,8.7427,0.9699
		c-2.3367,5.5744-4.3965,11.5079-8.6105,16.0052c-2.2234,2.4753-4.9949,4.3524-7.7223,6.2232
		c-1.6314,1.0834-2.5573,2.9291-4.2581,3.9304c-12.5031,8.2263-26.31,14.2039-40.2493,19.5137
		c-5.9966,2.3936-10.3806,7.3066-15.64,10.8528c-3.7793,2.8596-6.7964,6.5632-10.4686,9.5489
		c-0.4851-2.5132-1.5936-4.8249-2.5574-7.1743c-3.1557-0.7748-6.3365-1.4551-9.5048-2.192
		c1.9966,2.7399,1.3857,6.1414,2.3682,9.2026c-2.3746,3.0107-4.9949,5.9965-8.2829,8.0246
		c-3.1683,1.0078-5.0453,4.2391-8.5034,4.5981c-0.1826,0.9512-0.3905,1.9148-0.592,2.8786
		c-0.9636-0.3276-1.9464-0.6489-2.9288-0.9638c0.1385,1.2473,0.277,2.4944,0.403,3.7541c-1.6188-0.1448-3.2375-0.2897-4.869-0.4283
		c2.5385,2.4439,6.0469,4.5981,6.7145,8.3207c-1.3857,0.0818-2.7776,0.1575-4.176,0.2331c0.5038,0.4157,1.0014,0.844,1.4928,1.2723
		c-0.592,0.1072-1.77,0.3213-2.3622,0.4283c1.3292,0.3528,2.9855,0.1448,3.8739,1.4046c-2.5952,0.8063-5.247,1.4298-7.924,1.8959
		c1.1023,0.0568,2.1983,0.1449,3.2817,0.2582c0.3907,0.6425,0.8,1.2787,1.2284,1.9023c-0.9135,0.063-1.8392,0.1512-2.7653,0.2393
		c0.2015,0.6237,0.6047,1.8708,0.8063,2.4944c-0.7747,0.2834-1.5558,0.5795-2.3431,0.8818c0.4786,0.4976,0.9448,1.0078,1.4046,1.518
		c-1.115,0.3024-2.2361,0.6236-3.351,0.9952c0.277,0.4031,0.5606,0.7999,0.8251,1.222c-0.8062,0.0189-1.6251,0.0503-2.4565,0.1008
		c0.3843,0.5228,1.1528,1.5746,1.537,2.0975c-1.3984-0.7117-2.8345-1.3857-4.1824-2.2109c1.7259,1.7827,2.5069,4.2077,3.7225,6.3177
		c-1.1652-1.1338-2.3871-2.1982-3.5966-3.288c0.6615,1.0267,1.3292,2.0471,1.9969,3.0739c-0.5984-0.0315-1.7889-0.0945-2.3872-0.126
		c0.4976,0.359,1.4927,1.0771,1.9903,1.4424c-0.5165,0.0819-1.5494,0.2582-2.0723,0.3464c1.1338,1.2031,2.2677,2.4125,3.3888,3.6218
		c-0.9321-0.0567-1.877-0.1071-2.8217-0.1449c0.1763,1.0645,0.3401,2.1416,0.5038,3.225c1.4424,0.3968,2.8723,0.7999,4.3021,1.2094
		c-0.4409,0.3653-1.3164,1.0959-1.7573,1.4613c0.5795,0.1323,1.7383,0.4094,2.318,0.548c-0.8315,0.7748-1.6755,1.5621-2.5195,2.3495
		c1.1087,0.1511,2.2046,0.3149,3.2943,0.4787c-0.8125,0.3024-1.6313,0.6047-2.4565,0.9133
		c2.5952,0.8251,5.1965,1.6503,7.7855,2.4943c-2.3431,0.5795-4.6863,1.1464-7.0359,1.7259
		c2.5259,2.3369,5.7256,4.0312,7.5398,7.0421c-2.551-0.0504-5.0957-0.2394-7.6531-0.3842c1.8079,1.0582,3.6156,2.11,5.4171,3.1746
		c-1.5684,0.1386-3.1494,0.2834-4.7304,0.4409c1.4298,0.4536,2.8596,0.8945,4.2706,1.3542
		c-0.7181,0.2582-1.4236,0.4976-2.1605,0.7684c0.8881,1.0708,1.7762,2.1479,2.6581,3.225
		c-1.2032,0.3527-2.3998,0.7117-3.6092,1.0959c1.7888,0.3654,3.5903,0.674,5.3854,0.9952c-0.4032,0.6488-0.8063,1.3038-1.222,1.9715
		c0.7559,0.5417,1.4929,1.096,2.2361,1.6566c-3.7793,1.3921-7.5775,2.7463-11.363,4.1446
		c4.5982-0.5165,9.1711-1.1779,13.7629-1.7195c-0.6866,0.2961-2.066,0.8945-2.7526,1.1968
		c1.1844,0.3465,2.3431,0.7181,3.5085,1.0771c-3.8988,9.1836-7.4325,18.5374-11.9677,27.4375
		c-3.0927,6.1288-7.0358,11.8418-9.4671,18.2917c-11.6274,33.8561-15.8226,69.5829-23.8849,104.3207
		c-1.0268,3.962-3.9745,7.1681-4.6423,11.2623c-0.5039,2.91,0.5354,6.0657-0.8503,8.8184
		C550.8773,1187.9663,609.2153,1269.9537,652.9464,1292.5437z M644.1703,762.7975c-0.7938,2.2612-1.4487,4.5666-1.9589,6.9161
		c-2.7966-0.0252-5.7005-0.611-8.4279,0.2456c-2.0408,0.7496-1.8959,3.4077-1.9715,5.2027
		c-0.0063,2.1165,2.0031,3.1936,3.4139,4.3967c-1.4864,0.0757-3.5209-0.0126-3.7289-1.9211
		c-0.8188-4.5541-0.2393-10.2292,3.8801-13.0826C637.8714,762.6085,641.1531,762.4006,644.1703,762.7975z M640.5671,744.2412
		c6.469,2.8723,12.8308,6.0468,18.8839,9.7128c-4.9255,0.8816-10.267,1.2344-15.0288-0.5796
		C640.8948,751.9133,640.6807,747.5041,640.5671,744.2412z M634.8542,730.2264c2.0157,2.299,5.7445,0.1323,7.8484,2.2485
		c-0.2458,3.3133-2.1669,6.1603-3.3573,9.1838c-3.5021-1.8393-7.4012-2.9667-10.6199-5.3099
		c-3.4077-2.5195-4.7304-7.42-3.395-11.3693c0.8818-2.4944,3.6155-3.3321,5.9965-3.4832
		C632.2341,724.4882,632.8386,727.7383,634.8542,730.2264z M635.8748,727.3731c-1.8519-1.1276-2.066-3.4644-2.5888-5.3541
		c4.3651,1.7951,8.1066,4.7681,11.552,7.9365C641.8082,729.3193,638.558,729.061,635.8748,727.3731z M642.2177,717.1815
		c1.581,2.9101,2.0344,6.2484,2.4816,9.486c-3.017-3.647-6.7586-7.3066-11.7598-7.6594c-0.0883-3.691,0.8188-7.4389,3.2879-10.2733
		c0.548,1.7259,0.9512,3.5147,1.7512,5.1524C638.747,715.7076,641.342,715.4683,642.2177,717.1815z M651.3447,682.45
		c-2.8408,2.4503-5.291,5.4359-6.5823,8.9947c-0.9511,2.192-0.7811,4.9509-2.8408,6.5444c-0.9133-2.866-1.8141-6.4753,0.3149-9.0261
		C644.7246,686.1222,648.0818,684.2514,651.3447,682.45z M662.1154,752.8831c-7.0798-3.3508-14.2162-6.601-21.1387-10.2733
		c1.2031-2.7903,2.7463-5.417,4.1949-8.0814c1.3732,2.066,3.2125,3.7667,5.48,4.7997c-0.1385,1.0835-1.247,2.614-0.1008,3.4832
		c3.4265,2.5572,7.7538,3.3384,11.7534,4.5665C662.802,749.2108,663.098,751.1447,662.1154,752.8831z M824.8387,773.2787
		c1.9023-1.1338,4.0878-2.5385,6.3933-2.0093c0.0189,0.3654,0.0504,1.0897,0.063,1.455c-1.4739,3.0297-5.2595,4.7241-8.516,4.4092
		C821.9917,775.5651,823.6609,774.0975,824.8387,773.2787z M827.5157,742.6665c1.5117-0.7054,3.0297-1.3985,4.5477-2.0598
		c-0.7496,1.1024-1.5117,2.2046-2.2864,3.3006C829.0275,743.4916,828.2779,743.0759,827.5157,742.6665z M823.308,739.303
		c1.4929-4.1761,2.6203-8.5916,1.8079-13.0448c3.3762,1.9525,6.7333,3.9493,9.9331,6.1853
		c-0.2708,1.5684-0.6424,3.1179-1.0644,4.6549c-2.8976,1.2974-5.8453,2.4879-8.7365,3.8108
		C824.6057,740.3738,823.9568,739.8322,823.308,739.303z M823.2198,721.5592c4.5604,0.9511,9.4105,3.1494,11.382,7.6721
		c-3.1179-1.474-5.9965-3.3952-8.894-5.2596C824.7065,723.3607,823.9066,722.4914,823.2198,721.5592z M820.2846,715.273
		c0.334-2.0912,2.8849-2.1983,4.5414-1.9526c5.6374,0.7811,10.9033,3.1746,15.9612,5.6815
		c4.1193,1.9213,7.2057,6.1665,7.2057,10.7836c0.0568,4.9382-2.7463,9.3221-5.8453,12.944
		c-3.2187,3.6659-6.4121,7.5647-10.7899,9.9017c0.1512-2.7085,0.0945-5.4611-0.7811-8.0562
		c1.2221-1.5684,2.2109-3.3383,3.5903-4.7806c1.8834-1.2661,4.8185-1.4929,5.606-3.9557c0.7369-2.614-1.2787-4.8186-3.2438-6.2043
		c-1.8267-6.1666-8.4971-8.623-14.1724-9.8828C821.2924,718.4791,819.8311,717.1186,820.2846,715.273z M836.6112,733.3821
		c0.3275,0.6866,0.6614,1.3732,0.9196,2.0975c-0.6047,0.4472-1.2661,0.8188-1.9149,1.2156
		C835.9183,735.5804,836.2521,734.4717,836.6112,733.3821z M761.0949,675.3701c2.7336,1.1464,5.7256,2.3369,7.4073,4.9319
		c2.1354,3.1683,2.211,7.1365,2.1795,10.8215c-1.6188-2.8408-3.1873-5.7573-5.48-8.1255
		C762.9404,681.0076,762.6444,677.8329,761.0949,675.3701z M738.7089,670.4128c-0.8755-2.28-2.1603-4.7618-1.392-7.2499
		c0.9638-0.718,1.9338,0.4157,2.6077,1.0015c1.7197,1.9905,4.1763,3.4897,4.8501,6.1917
		C742.759,670.3689,740.7308,670.3752,738.7089,670.4128z M732.1331,661.0278c1.5117,0.0944,3.0171,0.2015,4.5225,0.296
		c-2.4882,2.6707-0.2206,6.324,0.6992,9.2025c-1.3795,0.1513-2.7652,0.3087-4.151,0.4788
		C732.3723,667.736,732.8763,664.3157,732.1331,661.0278z M731.686,659.5412c2.4564-4.6989,6.0908-9.3285,11.3251-10.9914
		c4.7051-1.4739,9.5111,1.789,11.6843,5.8327c1.1653,1.9967,0.5922,4.5981-1.096,6.1035c-2.381,2.2109-5.5745,3.4706-8.7744,3.899
		c-1.625,0.3905-2.5195-1.2974-3.691-2.0723C738.5515,660.0388,734.999,659.5916,731.686,659.5412z M729.7143,659.8121
		c-4.2517,0.9699-8.3963,2.5069-12.0307,4.9509c-1.6944-1.9274-3.584-4.0564-3.71-6.7523c-0.1889-1.8643,1.304-3.4014,2.9919-3.9052
		c3.1809-1.0016,6.9539-0.6866,9.6183,1.4424C728.0136,656.6437,728.8451,658.2814,729.7143,659.8121z M718.9307,677.0394
		c-0.6111-3.0361-1.5055-6.0092-2.6833-8.8751c0.4786-0.6362,0.9448-1.2598,1.4235-1.8834c1.8077,1.1087,3.6658,2.318,5.8264,2.5762
		c1.5683,0.2394,3.0422-0.4788,4.5035-0.9133c-3.0675,0.4976-7.2435,0.1387-8.9568-2.6833c3.269-2.1605,7.124-3.1809,10.9095-3.9935
		c-0.2016,3.4454-0.0441,6.9035,0.4219,10.3237C726.2562,672.6679,722.3635,674.5198,718.9307,677.0394z M717.3182,678.3685
		c-2.9982,2.9162-5.562,6.2547-7.6152,9.9016c1.2534-6.0972,2.3369-12.5095,0.8376-18.657
		c-0.6172-2.992-3.3762-5.6122-6.5947-4.9949c-6.2612,0.5669-10.1664,6.2232-13.0449,11.2056
		c-2.4944,6.4814-8.8561,10.0276-13.8701,14.3488c-1.3793-2.2803-1.4613-4.9951-1.1842-7.5712
		c0.5984-5.9839,1.9401-11.9363,4.4092-17.4352c2.1227-4.8374,6.0344-8.7994,10.6136-11.3629
		c3.6911-2.0914,8.4593-2.0977,12.0432,0.2203c5.4108,3.3952,8.7554,9.1395,11.4009,14.7833
		C713.4067,672.3404,715.0505,675.748,717.3182,678.3685z M583.1411,1164.5476c2.3809-8.1128,5.1965-16.0935,7.9427-24.0867
		c3.6785-10.6261,6.5887-21.5229,10.8214-31.9601c5.543-11.6906,10.7584-23.5449,16.2509-35.2671
		c2.274,0.8693,4.6613,1.4614,6.828,2.5826c2.2234,1.6251,4.0438,3.7415,6.1161,5.5618c-0.0063,2.2802-0.0126,4.5667-0.019,6.8595
		c-1.77,1.9966-3.5336,3.9934-5.3162,5.9775c1.222,2.2235,2.4503,4.4343,3.6785,6.6578
		c-6.3051,5.7949-11.4009,12.8118-15.1234,20.5215c-6.0091,12.2008-9.8575,25.359-12.6544,38.6431
		c-1.0141-2.4691-1.6249-5.0706-1.7509-7.7286c-1.4803,1.1591-2.9733,2.3054-4.4722,3.4518
		c-2.1353-0.4409-4.2643-0.8944-6.3995-1.3353C587.1536,1157.8394,585.2072,1161.2281,583.1411,1164.5476z"/>
</g>
</svg>
